<?xml version="1.0" encoding="UTF-8"?>
<svg width="150" height="32" viewBox="0 0 272.1 92" xmlns="http://www.w3.org/2000/svg">
  <path fill="#4285F4" d="M115.8 47.8c0 12.7-9.9 22-22 22-12.1 0-22-9.3-22-22s9.9-22 22-22c12.1 0 22 9.3 22 22zm-9.7 0c0-7.9-5.8-13.3-12.3-13.3s-12.3 5.4-12.3 13.3c0 7.9 5.8 13.3 12.3 13.3s12.3-5.4 12.3-13.3z"/>
  <path fill="#EA4335" d="M163.5 47.8c0 12.7-9.9 22-22 22-12.1 0-22-9.3-22-22s9.9-22 22-22c12.1 0 22 9.3 22 22zm-9.7 0c0-7.9-5.8-13.3-12.3-13.3s-12.3 5.4-12.3 13.3c0 7.9 5.8 13.3 12.3 13.3s12.3-5.4 12.3-13.3z"/>
  <path fill="#FBBC05" d="M209.4 26.9v40.2c0 16.5-9.7 23.2-21.2 23.2-10.8 0-17.3-7.2-19.8-13.1l8.6-3.6c1.5 3.6 5.2 7.9 11.2 7.9 7.3 0 11.9-4.5 11.9-13v-3.2h-.3c-2.2 2.7-6.4 5-11.7 5-11.1 0-21.2-9.7-21.2-22 0-12.3 10.1-22.1 21.2-22.1 5.3 0 9.5 2.3 11.7 4.9h.3v-3.6h9.4zm-8.7 20.9c0-7.7-5.1-13.3-11.6-13.3-6.6 0-12.1 5.6-12.1 13.3 0 7.6 5.5 13.1 12.1 13.1 6.5 0 11.6-5.5 11.6-13.1z"/>
  <path fill="#34A853" d="M225.4 2.2v67h-9.5v-67h9.5z"/>
  <path fill="#EA4335" d="M262.1 55.1l7.6 5.1c-2.5 3.6-8.4 9.8-18.6 9.8-12.7 0-22.1-9.8-22.1-22 0-13.1 9.5-22 21-22 11.6 0 17.3 9.2 19.1 14.2l1 2.5-29.9 12.4c2.3 4.5 5.8 6.7 10.8 6.7 5 0 8.4-2.4 11.1-6.7zm-23.4-8.1l20-8.3c-1.1-2.8-4.4-4.7-8.2-4.7-4.9 0-11.8 4.3-11.8 13z"/>
  <path fill="#4285F4" d="M35.3 16.2c0-1.6-.1-3.2-.4-4.7H18v8.9h9.7c-.4 2.2-1.7 4-3.5 5.2v4.3h5.7c3.3-3 5.4-7.4 5.4-13.7z"/>
  <path fill="#34A853" d="M18 32c4.8 0 8.8-1.6 11.7-4.3l-5.7-4.3c-1.6 1.1-3.6 1.7-6 1.7-4.6 0-8.5-3.1-9.9-7.3H2.3v4.4c2.9 5.8 9 9.8 15.7 9.8z"/>
  <path fill="#FBBC05" d="M8.1 17.8c-.4-1.1-.6-2.2-.6-3.4 0-1.2.2-2.3.6-3.4V6.6H2.3C1.1 9.2.4 12 .4 15s.7 5.8 1.9 8.4l5.8-5.6z"/>
  <path fill="#EA4335" d="M18 7c2.6 0 4.9.9 6.7 2.6l5-5C26.4 1.6 22.4 0 18 0 11.3 0 5.2 4 2.3 9.8l5.8 4.4c1.4-4.2 5.3-7.2 9.9-7.2z"/>
</svg>
