<?xml version="1.0" encoding="UTF-8"?>
<svg width="150" height="32" viewBox="0 0 150 32" xmlns="http://www.w3.org/2000/svg">
  <path fill="#f25022" d="M0 0h15.2v15.2H0z"/>
  <path fill="#00a4ef" d="M0 16.8h15.2V32H0z"/>
  <path fill="#7fba00" d="M16.8 0H32v15.2H16.8z"/>
  <path fill="#ffb900" d="M16.8 16.8H32V32H16.8z"/>
  <path fill="#ffffff" d="M45.8 25.2V6.8h7.2c1.4 0 2.6.3 3.7.8 1 .5 1.9 1.3 2.4 2.2.6 1 .9 2.1.9 3.3 0 1.2-.3 2.3-.9 3.3-.6 1-1.4 1.7-2.4 2.2-1.1.5-2.3.8-3.7.8h-4.8v-2.8h4.4c.9 0 1.6-.2 2.2-.5.6-.3 1-.8 1.3-1.4.3-.6.4-1.2.4-1.9s-.1-1.3-.4-1.9c-.3-.6-.7-1-1.3-1.4-.6-.3-1.3-.5-2.2-.5h-3.6v16.2h-3.2zm19.2.4c-1.1 0-2.1-.2-3-.7-.9-.5-1.6-1.1-2.1-2-.5-.9-.8-1.9-.8-3.1 0-1.2.3-2.2.8-3.1.5-.9 1.2-1.5 2.1-2 .9-.5 1.9-.7 3-.7s2.1.2 3 .7c.9.5 1.6 1.1 2.1 2 .5.9.8 1.9.8 3.1 0 1.2-.3 2.2-.8 3.1-.5.9-1.2 1.5-2.1 2-.9.5-1.9.7-3 .7zm0-2.6c.6 0 1.1-.1 1.6-.4.4-.3.8-.6 1-1.1.2-.5.4-1 .4-1.7s-.1-1.2-.4-1.7c-.2-.5-.6-.8-1-1.1-.4-.3-1-.4-1.6-.4-.6 0-1.1.1-1.6.4-.4.3-.8.6-1 1.1-.2.5-.4 1-.4 1.7s.1 1.2.4 1.7c.2.5.6.8 1 1.1.4.3 1 .4 1.6.4zm14.4 2.6c-1.1 0-2.1-.2-3-.7-.9-.5-1.6-1.1-2.1-2-.5-.9-.8-1.9-.8-3.1 0-1.2.3-2.2.8-3.1.5-.9 1.2-1.5 2.1-2 .9-.5 1.9-.7 3-.7s2.1.2 3 .7c.9.5 1.6 1.1 2.1 2 .5.9.8 1.9.8 3.1 0 1.2-.3 2.2-.8 3.1-.5.9-1.2 1.5-2.1 2-.9.5-1.9.7-3 .7zm0-2.6c.6 0 1.1-.1 1.6-.4.4-.3.8-.6 1-1.1.2-.5.4-1 .4-1.7s-.1-1.2-.4-1.7c-.2-.5-.6-.8-1-1.1-.4-.3-1-.4-1.6-.4-.6 0-1.1.1-1.6.4-.4.3-.8.6-1 1.1-.2.5-.4 1-.4 1.7s.1 1.2.4 1.7c.2.5.6.8 1 1.1.4.3 1 .4 1.6.4zm14.4 2.6c-1.1 0-2.1-.2-3-.7-.9-.5-1.6-1.1-2.1-2-.5-.9-.8-1.9-.8-3.1 0-1.2.3-2.2.8-3.1.5-.9 1.2-1.5 2.1-2 .9-.5 1.9-.7 3-.7s2.1.2 3 .7c.9.5 1.6 1.1 2.1 2 .5.9.8 1.9.8 3.1 0 1.2-.3 2.2-.8 3.1-.5.9-1.2 1.5-2.1 2-.9.5-1.9.7-3 .7zm0-2.6c.6 0 1.1-.1 1.6-.4.4-.3.8-.6 1-1.1.2-.5.4-1 .4-1.7s-.1-1.2-.4-1.7c-.2-.5-.6-.8-1-1.1-.4-.3-1-.4-1.6-.4-.6 0-1.1.1-1.6.4-.4.3-.8.6-1 1.1-.2.5-.4 1-.4 1.7s.1 1.2.4 1.7c.2.5.6.8 1 1.1.4.3 1 .4 1.6.4zm14.4 2.6c-1.1 0-2.1-.2-3-.7-.9-.5-1.6-1.1-2.1-2-.5-.9-.8-1.9-.8-3.1 0-1.2.3-2.2.8-3.1.5-.9 1.2-1.5 2.1-2 .9-.5 1.9-.7 3-.7s2.1.2 3 .7c.9.5 1.6 1.1 2.1 2 .5.9.8 1.9.8 3.1 0 1.2-.3 2.2-.8 3.1-.5.9-1.2 1.5-2.1 2-.9.5-1.9.7-3 .7zm0-2.6c.6 0 1.1-.1 1.6-.4.4-.3.8-.6 1-1.1.2-.5.4-1 .4-1.7s-.1-1.2-.4-1.7c-.2-.5-.6-.8-1-1.1-.4-.3-1-.4-1.6-.4-.6 0-1.1.1-1.6.4-.4.3-.8.6-1 1.1-.2.5-.4 1-.4 1.7s.1 1.2.4 1.7c.2.5.6.8 1 1.1.4.3 1 .4 1.6.4z"/>
</svg>
