<?xml version="1.0" encoding="UTF-8"?>
<svg width="512" height="512" viewBox="0 0 512 512" fill="none" xmlns="http://www.w3.org/2000/svg">
    <rect width="512" height="512" fill="#000000"/>
    <path d="M256 96C256 87.1634 263.163 80 272 80H400C408.837 80 416 87.1634 416 96V416C416 424.837 408.837 432 400 432H272C263.163 432 256 424.837 256 416V96Z" fill="white"/>
    <path d="M96 256C96 247.163 103.163 240 112 240H240C248.837 240 256 247.163 256 256V416C256 424.837 248.837 432 240 432H112C103.163 432 96 424.837 96 416V256Z" fill="white"/>
</svg>
