<?xml version="1.0" standalone="no"?>
<!DOCTYPE svg PUBLIC "-//W3C//DTD SVG 20010904//EN"
 "http://www.w3.org/TR/2001/REC-SVG-20010904/DTD/svg10.dtd">
<svg version="1.0" xmlns="http://www.w3.org/2000/svg"
 width="186.000000pt" height="162.000000pt" viewBox="0 0 186.000000 162.000000"
 preserveAspectRatio="xMidYMid meet">
<metadata>
Created by potrace 1.10, written by Peter Selinger 2001-2011
</metadata>
<g transform="translate(0.000000,162.000000) scale(0.100000,-0.100000)"
fill="#000000" stroke="none">
<path d="M20 810 c0 -512 3 -769 10 -765 14 9 14 1521 0 1530 -7 4 -10 -253
-10 -765z"/>
<path d="M98 1563 c6 -2 18 -2 25 0 6 3 1 5 -13 5 -14 0 -19 -2 -12 -5z"/>
<path d="M303 1563 c92 -2 242 -2 335 0 92 1 16 3 -168 3 -184 0 -260 -2 -167
-3z"/>
<path d="M868 1563 c6 -2 18 -2 25 0 6 3 1 5 -13 5 -14 0 -19 -2 -12 -5z"/>
<path d="M1028 1563 c17 -2 47 -2 65 0 17 2 3 4 -33 4 -36 0 -50 -2 -32 -4z"/>
<path d="M1178 1563 c7 -3 16 -2 19 1 4 3 -2 6 -13 5 -11 0 -14 -3 -6 -6z"/>
<path d="M1373 1563 c93 -2 241 -2 330 0 89 1 14 3 -168 3 -181 0 -254 -2
-162 -3z"/>
<path d="M847 1460 c-9 -11 -42 -60 -73 -108 -31 -48 -60 -88 -65 -90 -5 -2
-9 -9 -9 -17 0 -7 -7 -18 -15 -25 -8 -7 -15 -21 -15 -31 0 -12 5 -16 15 -13 8
4 15 14 15 24 0 9 9 25 20 35 11 10 20 24 20 31 0 7 3 14 8 16 15 6 52 61 46
69 -3 5 1 9 8 9 7 0 22 18 32 40 11 22 25 40 32 40 7 0 14 5 16 10 4 14 126
22 134 9 3 -6 17 -8 29 -5 15 4 30 0 39 -10 10 -9 16 -11 16 -4 0 31 -29 40
-132 40 -91 0 -106 -2 -121 -20z"/>
<path d="M1112 1407 c4 -22 3 -25 -8 -16 -11 9 -14 7 -14 -10 0 -12 5 -19 10
-16 6 3 10 0 10 -7 0 -9 3 -9 10 2 8 13 11 12 24 -5 9 -11 16 -24 16 -28 0 -4
9 -17 20 -29 11 -12 20 -30 20 -40 0 -11 4 -17 9 -14 5 4 27 -22 49 -56 23
-35 62 -92 87 -128 25 -36 50 -75 55 -87 5 -13 14 -23 19 -23 15 0 34 -58 27
-85 -4 -16 -13 -25 -26 -25 -11 0 -20 -4 -20 -10 0 -5 11 -10 24 -10 17 0 27
9 36 30 7 17 16 30 21 30 14 0 11 14 -8 36 -10 11 -65 89 -122 174 -58 85
-108 157 -113 158 -4 2 -8 8 -8 14 0 11 -51 81 -62 86 -5 2 -8 9 -8 15 0 7
-12 26 -26 42 l-27 30 5 -28z"/>
<path d="M1071 1354 c0 -11 3 -14 6 -6 3 7 2 16 -1 19 -3 4 -6 -2 -5 -13z"/>
<path d="M537 1333 c-3 -5 -2 -15 2 -22 7 -10 10 -10 16 -1 4 6 3 16 -3 22 -5
5 -12 6 -15 1z"/>
<path d="M1053 1315 c0 -8 6 -15 13 -15 8 0 11 6 8 15 -4 8 -9 15 -13 15 -4 0
-8 -7 -8 -15z"/>
<path d="M1027 1283 c-4 -3 -7 -15 -7 -25 0 -11 -4 -17 -8 -14 -4 2 -13 1 -20
-3 -9 -6 -6 -17 13 -45 14 -20 25 -41 25 -46 0 -6 5 -10 10 -10 6 0 10 -6 10
-13 0 -7 9 -23 20 -35 11 -12 20 -24 20 -27 0 -9 54 -90 63 -93 4 -2 7 -9 7
-15 0 -7 14 -28 30 -47 16 -19 30 -38 30 -41 0 -4 9 -18 20 -32 14 -17 26 -23
40 -20 26 7 26 23 0 23 -11 0 -20 6 -20 13 0 8 -11 27 -25 43 -14 16 -44 58
-68 94 -23 36 -44 67 -47 70 -3 3 -14 23 -25 45 -11 22 -33 57 -49 78 -26 35
-28 40 -15 65 7 15 15 30 17 35 5 9 -12 9 -21 0z"/>
<path d="M940 1269 c0 -5 5 -7 10 -4 6 3 10 8 10 11 0 2 -4 4 -10 4 -5 0 -10
-5 -10 -11z"/>
<path d="M931 1204 c-7 -9 -10 -19 -5 -24 5 -5 14 2 21 16 13 27 5 31 -16 8z"/>
<path d="M410 1162 c0 -15 4 -20 16 -15 9 3 12 9 7 12 -4 3 -11 10 -15 15 -5
5 -8 0 -8 -12z"/>
<path d="M643 1154 c-7 -7 -13 -18 -13 -24 0 -5 -4 -10 -8 -10 -5 0 -15 -12
-23 -27 -21 -43 -63 -108 -71 -111 -5 -2 -8 -10 -8 -18 0 -8 -4 -14 -8 -14 -4
0 -22 -24 -40 -53 -17 -29 -48 -69 -67 -90 -21 -23 -35 -47 -35 -63 0 -24 34
-85 52 -92 4 -2 8 -10 8 -17 0 -7 7 -15 15 -19 9 -3 15 0 15 9 0 8 4 15 8 15
4 0 16 14 26 32 48 80 41 78 224 77 90 0 167 2 170 5 3 4 -67 6 -156 6 -105 0
-162 4 -164 11 -4 12 -39 -18 -85 -75 -31 -38 -33 -39 -52 -22 -10 10 -24 30
-31 46 -10 25 -9 32 11 59 13 17 28 31 34 31 7 0 12 6 12 14 0 16 83 136 94
136 5 0 6 6 3 14 -3 9 3 20 15 28 12 7 21 21 21 30 0 10 4 18 8 18 5 0 14 10
20 23 6 12 20 36 32 54 21 32 16 52 -7 27z"/>
<path d="M723 1155 c-3 -9 -3 -18 -1 -21 3 -3 8 4 11 16 6 23 -1 27 -10 5z"/>
<path d="M890 1155 c-7 -8 -9 -15 -5 -15 4 0 -3 -9 -16 -21 -13 -11 -18 -18
-11 -14 6 3 12 0 13 -7 0 -7 4 -3 9 10 5 12 16 25 25 28 16 6 21 34 6 34 -5 0
-14 -7 -21 -15z"/>
<path d="M1310 1044 c0 -8 5 -12 10 -9 6 3 10 10 10 16 0 5 -4 9 -10 9 -5 0
-10 -7 -10 -16z"/>
<path d="M1165 1040 c-3 -5 -1 -10 4 -10 6 0 11 5 11 10 0 6 -2 10 -4 10 -3 0
-8 -4 -11 -10z"/>
<path d="M1251 1041 c-8 -6 -9 -11 -3 -15 6 -3 14 -1 17 5 9 14 2 20 -14 10z"/>
<path d="M1600 1026 c0 -8 5 -18 10 -21 6 -3 10 3 10 14 0 12 -4 21 -10 21 -5
0 -10 -6 -10 -14z"/>
<path d="M1200 1016 c0 -2 7 -6 15 -10 8 -3 15 -1 15 4 0 6 -7 10 -15 10 -8 0
-15 -2 -15 -4z"/>
<path d="M1330 995 c0 -14 4 -25 9 -25 4 0 6 11 3 25 -2 14 -6 25 -8 25 -2 0
-4 -11 -4 -25z"/>
<path d="M772 980 c-6 -11 -12 -26 -12 -34 0 -7 -9 -16 -20 -19 -11 -3 -20
-11 -20 -19 0 -10 3 -9 10 2 8 12 10 12 10 -5 0 -16 3 -15 15 9 8 15 15 35 15
43 0 8 5 11 10 8 6 -3 10 0 10 9 0 8 6 17 13 19 8 4 7 6 -3 6 -8 1 -21 -8 -28
-19z"/>
<path d="M1710 950 c0 -11 4 -20 9 -20 13 0 32 26 24 33 -13 14 -33 6 -33 -13z"/>
<path d="M931 946 c-7 -9 -8 -17 -2 -20 14 -9 41 4 41 20 0 18 -24 18 -39 0z"/>
<path d="M1365 880 c4 -6 11 -8 16 -5 14 9 11 15 -7 15 -8 0 -12 -5 -9 -10z"/>
<path d="M994 845 c-9 -19 -20 -35 -25 -35 -5 0 -9 -6 -9 -14 0 -8 -10 -22
-22 -30 -26 -18 -23 -19 74 -16 36 1 75 -3 86 -9 16 -8 21 -7 26 4 3 8 2 15
-3 15 -4 0 -27 27 -50 60 -23 33 -46 60 -51 60 -5 0 -17 -16 -26 -35z m58 -42
c27 -29 18 -39 -31 -35 -38 4 -39 5 -29 28 6 13 15 24 20 24 4 0 8 8 9 18 0
13 2 14 6 2 3 -8 14 -25 25 -37z"/>
<path d="M1398 863 c7 -3 16 -2 19 1 4 3 -2 6 -13 5 -11 0 -14 -3 -6 -6z"/>
<path d="M1496 862 c-3 -6 -1 -21 5 -34 19 -36 29 -57 29 -61 0 -7 -70 -4 -75
3 -3 5 -18 5 -33 1 -37 -11 -103 -2 -125 17 -23 20 -34 8 -18 -21 11 -22 17
-22 129 -21 72 1 119 -2 123 -8 4 -6 10 4 14 22 4 18 3 35 -1 39 -5 3 -16 21
-25 40 -9 21 -18 30 -23 23z"/>
<path d="M1310 850 c0 -5 5 -10 11 -10 5 0 7 5 4 10 -3 6 -8 10 -11 10 -2 0
-4 -4 -4 -10z"/>
<path d="M596 834 c-9 -8 -15 -23 -15 -32 1 -15 2 -15 6 1 2 9 8 17 13 17 4 0
10 7 14 15 7 19 1 19 -18 -1z"/>
<path d="M1228 753 c7 -3 16 -2 19 1 4 3 -2 6 -13 5 -11 0 -14 -3 -6 -6z"/>
<path d="M550 701 c0 -6 -11 -21 -25 -35 -14 -14 -25 -30 -25 -36 0 -5 -4 -10
-8 -10 -5 0 -14 -11 -21 -24 -14 -25 -14 -25 49 -98 l25 -29 394 1 393 0 27
29 c38 42 61 71 61 76 0 3 -196 5 -435 5 -428 0 -435 0 -435 20 0 11 5 20 10
20 6 0 10 -5 10 -10 0 -7 134 -10 410 -9 226 0 410 5 410 9 0 5 -22 8 -48 8
-26 -1 -52 0 -57 3 -6 3 -174 5 -375 5 l-365 -1 -3 -29 c-2 -16 1 -32 7 -35 5
-4 191 -5 413 -4 393 3 404 2 404 -17 0 -10 -2 -17 -5 -15 -2 3 -13 -3 -24
-12 -17 -17 -51 -18 -402 -18 l-383 0 -24 29 c-27 34 -43 70 -27 61 6 -4 9 -1
7 6 -5 25 33 69 61 70 23 2 24 2 3 6 -12 2 -20 9 -16 14 3 6 192 9 482 9 270
-1 478 3 480 8 1 5 -204 10 -483 11 -319 1 -485 -1 -485 -8z"/>
<path d="M1481 654 c0 -11 3 -14 6 -6 3 7 2 16 -1 19 -3 4 -6 -2 -5 -13z"/>
<path d="M1440 624 c0 -14 4 -23 9 -20 5 3 7 15 4 26 -7 28 -13 25 -13 -6z"/>
<path d="M1400 610 c0 -5 5 -10 11 -10 5 0 7 5 4 10 -3 6 -8 10 -11 10 -2 0
-4 -4 -4 -10z"/>
<path d="M1440 536 c0 -2 7 -6 15 -10 8 -3 15 -1 15 4 0 6 -7 10 -15 10 -8 0
-15 -2 -15 -4z"/>
<path d="M350 470 c0 -23 25 -27 33 -6 7 16 -1 26 -20 26 -7 0 -13 -9 -13 -20z"/>
<path d="M1461 454 c0 -11 3 -14 6 -6 3 7 2 16 -1 19 -3 4 -6 -2 -5 -13z"/>
<path d="M398 313 c7 -3 16 -2 19 1 4 3 -2 6 -13 5 -11 0 -14 -3 -6 -6z"/>
<path d="M196 281 c-3 -4 1 -17 9 -27 8 -10 15 -24 15 -31 0 -6 14 -44 32 -83
29 -64 34 -70 45 -54 7 10 13 30 13 46 0 37 28 37 35 1 12 -56 36 -77 43 -38
4 22 22 65 55 133 15 32 18 45 9 54 -14 14 -42 -7 -42 -33 0 -10 -4 -21 -10
-24 -5 -3 -10 -17 -10 -31 0 -21 -4 -25 -22 -22 -19 2 -22 8 -20 36 3 22 -1
34 -13 38 -22 9 -27 1 -27 -40 0 -27 -4 -36 -16 -36 -15 0 -15 -2 -2 -10 10
-6 11 -13 5 -19 -7 -7 -14 -2 -21 14 -7 13 -9 24 -5 23 26 -3 30 4 11 24 -11
12 -20 28 -20 35 0 7 -4 13 -9 13 -5 0 -11 9 -14 20 -5 20 -31 27 -41 11z"/>
<path d="M683 269 c-19 -7 -20 -11 -11 -54 7 -31 7 -60 0 -87 -8 -32 -7 -40 4
-45 25 -9 28 5 25 88 -3 79 -2 81 20 77 12 -2 27 -11 33 -21 9 -15 7 -22 -12
-37 -17 -14 -21 -23 -14 -37 5 -10 15 -30 22 -45 15 -31 37 -43 55 -28 7 6 21
7 30 3 15 -5 17 -3 12 18 -20 69 -20 72 -7 67 8 -2 18 -13 24 -23 6 -11 17
-25 24 -33 6 -7 12 -18 12 -23 0 -5 18 -9 41 -9 l41 0 -4 41 -3 42 38 1 c32 1
37 -2 37 -21 0 -32 30 -63 60 -63 50 0 70 36 68 124 -1 57 -3 66 -19 66 -17 0
-19 -9 -19 -74 0 -73 -7 -89 -37 -79 -9 3 -13 28 -13 79 l0 74 -75 0 -75 0 0
-87 -1 -88 -22 30 c-12 16 -29 37 -38 46 -14 14 -13 19 13 48 32 36 39 67 10
52 -10 -5 -24 -21 -31 -35 -17 -31 -46 -45 -38 -19 2 10 8 26 12 36 5 13 2 17
-14 17 -20 0 -21 -5 -21 -85 0 -47 -3 -85 -8 -85 -4 0 -13 14 -21 31 -11 26
-11 35 0 56 27 50 -38 104 -98 82z m372 -39 c12 -19 -7 -37 -40 -36 -41 2 -49
8 -41 33 5 15 13 18 41 15 19 -2 37 -8 40 -12z"/>
<path d="M500 257 c-48 -39 -52 -102 -11 -146 23 -24 37 -31 68 -31 59 1 93
38 93 100 0 65 -101 117 -150 77z m88 -43 c26 -18 28 -50 5 -76 -32 -35 -93
-10 -93 38 0 22 33 54 55 54 6 0 21 -7 33 -16z"/>
<path d="M540 175 c0 -8 2 -15 4 -15 2 0 6 7 10 15 3 8 1 15 -4 15 -6 0 -10
-7 -10 -15z"/>
<path d="M1207 263 c-10 -9 -9 -83 1 -83 4 0 20 -10 35 -23 20 -15 26 -27 22
-40 -10 -23 -32 -21 -46 5 -10 18 -13 19 -20 5 -21 -37 28 -70 71 -47 31 16
25 89 -8 106 -39 19 -47 31 -32 49 11 13 14 13 30 -5 10 -11 20 -20 24 -20 11
0 7 35 -6 48 -13 13 -60 16 -71 5z"/>
<path d="M1319 263 c-1 -4 0 -12 1 -18 1 -5 3 -45 4 -88 1 -42 5 -77 9 -77 4
0 10 0 15 0 4 0 7 42 6 92 -1 78 -3 94 -17 96 -10 2 -18 0 -18 -5z"/>
<path d="M1407 247 c-26 -20 -28 -27 -25 -82 3 -55 5 -60 36 -78 28 -17 37
-17 63 -7 38 16 52 42 51 97 -1 45 -11 61 -49 81 -31 17 -44 15 -76 -11z m83
-47 c24 -24 25 -38 3 -62 -33 -37 -93 -14 -93 36 0 44 55 61 90 26z"/>
<path d="M1555 178 c0 -86 7 -114 27 -102 4 3 5 32 1 64 -8 81 -4 80 72 -19
50 -65 55 -62 55 38 0 62 -4 92 -13 100 -20 16 -27 2 -21 -40 4 -21 3 -46 0
-56 -6 -15 -9 -14 -24 9 -25 37 -80 98 -89 98 -5 0 -8 -42 -8 -92z"/>
<path d="M460 60 c-13 -8 -12 -10 3 -10 9 0 17 5 17 10 0 12 -1 12 -20 0z"/>
<path d="M870 60 c0 -5 5 -10 11 -10 5 0 7 5 4 10 -3 6 -8 10 -11 10 -2 0 -4
-4 -4 -10z"/>
<path d="M618 53 c6 -2 18 -2 25 0 6 3 1 5 -13 5 -14 0 -19 -2 -12 -5z"/>
<path d="M1013 53 c9 -2 25 -2 35 0 9 3 1 5 -18 5 -19 0 -27 -2 -17 -5z"/>
<path d="M1633 53 c9 -2 23 -2 30 0 6 3 -1 5 -18 5 -16 0 -22 -2 -12 -5z"/>
<path d="M1728 53 c7 -3 16 -2 19 1 4 3 -2 6 -13 5 -11 0 -14 -3 -6 -6z"/>
<path d="M1793 53 c15 -2 37 -2 50 0 12 2 0 4 -28 4 -27 0 -38 -2 -22 -4z"/>
</g>
</svg>
