<?xml version="1.0" encoding="utf-8"?>
<svg xmlns="http://www.w3.org/2000/svg" viewBox="0 0 602 182">
    <path fill="#FF9900" d="M374.5 142.1c-34.4 25.3-84.2 38.8-127.2 38.8-60.2 0-114.3-22.2-155.3-59.1-3.2-2.9-.3-6.9 3.5-4.6 44.4 25.8 99.3 41.3 156 41.3 38.3 0 80.3-7.9 118.9-24.4 5.8-2.5 10.7 3.8 4.1 8z"/>
    <path fill="#FF9900" d="M388.2 126.5c-4.4-5.6-29.1-2.7-40.2-1.3-3.4.4-3.9-2.5-.9-4.7 19.7-13.8 52-9.8 55.7-5.2 3.7 4.7-1 37.1-19.5 52.6-2.8 2.4-5.5 1.1-4.3-2 4.2-10.5 13.6-34 9.2-39.4z"/>
    <path fill="white" d="M348.9 20.2v-14c0-2.1 1.6-3.5 3.5-3.5h61.7c2 0 3.6 1.4 3.6 3.5v12c0 2-1.7 4.6-4.7 8.7l-32 45.7c11.9-.3 24.4 1.5 35.2 7.4 2.4 1.3 3.1 3.3 3.3 5.2v14.9c0 2-2.2 4.3-4.5 3.1-18.8-9.9-43.8-11-64.6.1-2.1 1.1-4.3-1.1-4.3-3.1V87.8c0-2.2 0-5.9 2.2-9.2l37.1-53.1h-32.2c-2 0-3.6-1.4-3.6-3.5"/>
    <path fill="white" d="M124.3 105.3H106c-1.7-.1-3.1-1.4-3.3-3.1V9.9c0-1.9 1.6-3.4 3.6-3.4h17.1c1.8.1 3.3 1.5 3.4 3.2v12.1h.3c4.5-11.9 12.9-17.4 24.2-17.4 11.5 0 18.7 5.5 23.8 17.4 4.4-11.9 14.5-17.4 25.3-17.4 7.7 0 16.1 3.2 21.2 10.3 5.8 7.9 4.6 19.3 4.6 29.4l-.1 58.4c0 1.9-1.6 3.4-3.6 3.4h-17.1c-1.9-.1-3.4-1.6-3.4-3.4V54.4c0-4.3.4-15.1-.6-19.2-1.5-6.9-6.1-8.8-12-8.8-4.9 0-10.1 3.3-12.2 8.6-2.1 5.3-1.9 14.1-1.9 19.4v47.1c0 1.9-1.6 3.4-3.6 3.4h-17.1c-1.9-.1-3.4-1.6-3.4-3.4l-.1-47.1c0-11.4 1.9-28.2-12.2-28.2-14.3 0-13.7 16.4-13.7 28.2v47.1c0 1.9-1.6 3.4-3.6 3.4"/>
    <path fill="white" d="M469.1 1.2c25.4 0 39.1 21.8 39.1 49.5 0 26.8-15.2 48-39.1 48-24.9 0-38.5-21.8-38.5-49 0-27.3 13.7-48.5 38.5-48.5m.1 17.9c-12.6 0-13.4 17.1-13.4 27.8 0 10.7-.2 33.5 13.3 33.5 13.3 0 13.9-18.5 13.9-29.8 0-7.4-.3-16.3-2.6-23.4-1.9-6-5.7-8.1-11.2-8.1"/>
    <path fill="white" d="M548.1 105.3h-17c-1.9-.1-3.4-1.6-3.4-3.4l-.1-91.8c.2-1.8 1.7-3.2 3.6-3.2h15.8c1.6.1 3 1.2 3.3 2.7v14h.3c4.8-12 11.5-17.7 23.3-17.7 7.7 0 15.2 2.8 20 10.4 4.5 7.1 4.5 19.1 4.5 27.7v56c-.2 1.7-1.7 3.1-3.6 3.1h-17.2c-1.7-.1-3.2-1.4-3.4-3.1V54.7c0-11.2 1.3-27.6-12.5-27.6-4.9 0-9.3 3.3-11.5 8.2-2.8 6.3-3.2 12.5-3.2 19.4v47.2c-.1 1.9-1.7 3.4-3.7 3.4"/>
    <path fill="white" d="M244.7 56.5c0 6.7.2 12.3-3.2 18.2-2.7 4.9-7.1 7.9-11.9 7.9-6.6 0-10.4-5-10.4-12.4 0-14.6 13.1-17.2 25.5-17.2v3.5m17.3 41.8c-1.1 1-2.8 1.1-4.1.4-5.7-4.8-6.8-7-9.9-11.5-9.5 9.7-16.2 12.6-28.5 12.6-14.6 0-25.9-9-25.9-26.9 0-14 7.6-23.5 18.4-28.2 9.4-4.1 22.5-4.9 32.5-6v-2.2c0-4.1.3-9-2.1-12.5-2.1-3.2-6.2-4.5-9.8-4.5-6.6 0-12.5 3.4-14 10.4-.3 1.6-1.4 3.1-3 3.2l-16.6-1.8c-1.4-.3-2.9-1.5-2.5-3.6C200.7 8.6 221.4.2 240.2.2c9.8 0 22.6 2.6 30.3 10 9.8 9.1 8.8 21.3 8.8 34.6v31.3c0 9.4 3.9 13.6 7.6 18.7 1.3 1.8 1.6 4-.1 5.3-4.1 3.4-11.4 9.8-15.4 13.3l-.1-.1"/>
    <path fill="white" d="M87.1 56.5c0 6.7.2 12.3-3.2 18.2-2.7 4.9-7 7.9-11.9 7.9-6.6 0-10.4-5-10.4-12.4 0-14.6 13.1-17.2 25.5-17.2v3.5m17.3 41.8c-1.1 1-2.8 1.1-4.1.4-5.7-4.8-6.8-7-9.9-11.5-9.5 9.7-16.2 12.6-28.5 12.6-14.6 0-25.9-9-25.9-26.9 0-14 7.6-23.5 18.4-28.2 9.4-4.1 22.5-4.9 32.5-6v-2.2c0-4.1.3-9-2.1-12.5-2.1-3.2-6.2-4.5-9.8-4.5-6.6 0-12.5 3.4-14 10.4-.3 1.6-1.4 3.1-3 3.2l-16.6-1.8c-1.4-.3-2.9-1.5-2.5-3.6C43.1 8.6 63.8.2 82.6.2c9.8 0 22.6 2.6 30.3 10 9.8 9.1 8.8 21.3 8.8 34.6v31.3c0 9.4 3.9 13.6 7.6 18.7 1.3 1.8 1.6 4-.1 5.3-4.1 3.4-11.4 9.8-15.4 13.3l-.1-.1"/>
</svg>
