<?xml version="1.0" encoding="utf-8"?>
<svg xmlns="http://www.w3.org/2000/svg" viewBox="0 0 1000 400">
  <path fill="#1F70C1" d="M0 0v27.367h194.648V0H0zm272.526 0v27.367h437.423V0H272.526zm515.297 0v27.367H1000V0H787.823z"/>
  <path fill="#1F70C1" d="M0 53.424v27.368h194.648V53.424H0zm272.526 0v27.368h437.423V53.424H272.526zm515.297 0v27.368H1000V53.424H787.823z"/>
  <path fill="#1F70C1" d="M0 106.849v27.368h194.648v-27.368H0zm272.526 0v27.368h437.423v-27.368H272.526zm515.297 0v27.368H1000v-27.368H787.823z"/>
  <path fill="#1F70C1" d="M0 160.273v27.368h194.648v-27.368H0zm272.526 0v27.368h437.423v-27.368H272.526zm515.297 0v27.368H1000v-27.368H787.823z"/>
  <path fill="#1F70C1" d="M0 213.698v27.368h194.648v-27.368H0zm272.526 0v27.368h437.423v-27.368H272.526zm515.297 0v27.368H1000v-27.368H787.823z"/>
  <path fill="#1F70C1" d="M0 267.122v27.368h194.648v-27.368H0zm272.526 0v27.368h437.423v-27.368H272.526zm515.297 0v27.368H1000v-27.368H787.823z"/>
  <path fill="#1F70C1" d="M0 320.547v27.367h194.648v-27.367H0zm272.526 0v27.367h437.423v-27.367H272.526zm515.297 0v27.367H1000v-27.367H787.823z"/>
  <path fill="#1F70C1" d="M0 373.971v27.367h194.648v-27.367H0zm272.526 0v27.367h437.423v-27.367H272.526zm515.297 0v27.367H1000v-27.367H787.823z"/>
</svg>
