<?xml version="1.0" encoding="UTF-8"?>
<svg width="98px" height="98px" viewBox="0 0 98 98" version="1.1" xmlns="http://www.w3.org/2000/svg">
    <g stroke="none" stroke-width="1" fill="none" fill-rule="evenodd">
        <path d="M22.9883 20.5379L60.9883 19.5379C64.4883 19.4379 65.4883 20.5379 65.4883 23.5379V78.5379C65.4883 81.5379 63.9883 82.5379 60.9883 82.5379H22.9883C19.9883 82.5379 18.4883 81.5379 18.4883 78.5379V23.5379C18.4883 20.5379 19.4883 20.5379 22.9883 20.5379Z" fill="white"/>
        <path d="M33.4883 34.5379V68.5379L35.4883 70.0379H47.4883L49.4883 68.5379V34.5379L47.4883 33.0379H35.4883L33.4883 34.5379Z" fill="white"/>
        <path d="M22.9883 20.5379L60.9883 19.5379C64.4883 19.4379 65.4883 20.5379 65.4883 23.5379V78.5379C65.4883 81.5379 63.9883 82.5379 60.9883 82.5379H22.9883C19.9883 82.5379 18.4883 81.5379 18.4883 78.5379V23.5379C18.4883 20.5379 19.4883 20.5379 22.9883 20.5379Z" stroke="white" stroke-width="2"/>
    </g>
</svg>
