<?xml version="1.0" encoding="UTF-8"?>
<svg width="98px" height="98px" viewBox="0 0 98 98" version="1.1" xmlns="http://www.w3.org/2000/svg">
    <g stroke="none" stroke-width="1" fill="none" fill-rule="evenodd">
        <path d="M20,0 C31.045695,0 40,8.954305 40,20 L40,78 C40,89.045695 31.045695,98 20,98 C8.954305,98 0,89.045695 0,78 L0,20 C0,8.954305 8.954305,0 20,0 Z" fill="#E01E5A"/>
        <path d="M78,0 C89.045695,0 98,8.954305 98,20 L98,78 C98,89.045695 89.045695,98 78,98 C66.954305,98 58,89.045695 58,78 L58,20 C58,8.954305 66.954305,0 78,0 Z" fill="#2EB67D"/>
        <path d="M98,78 C98,89.045695 89.045695,98 78,98 L20,98 C8.954305,98 0,89.045695 0,78 L0,58 L98,58 L98,78 Z" fill="#ECB22E"/>
        <path d="M98,20 C98,8.954305 89.045695,0 78,0 L20,0 C8.954305,0 0,8.954305 0,20 L0,40 L98,40 L98,20 Z" fill="#36C5F0"/>
    </g>
</svg>
