<?xml version="1.0" encoding="utf-8"?>
<svg xmlns="http://www.w3.org/2000/svg" viewBox="0 0 100 100">
  <path fill="#2684FF" d="M95.5,46.5L54.8,5.8c-2.3-2.3-6.1-2.3-8.4,0L5.7,46.5c-2.3,2.3-2.3,6.1,0,8.4l40.7,40.7c2.3,2.3,6.1,2.3,8.4,0l40.7-40.7C97.8,52.6,97.8,48.8,95.5,46.5z"/>
  <path fill="#ffffff" d="M50.6,31.9c-0.6-0.6-1.5-0.6-2.1,0L34.9,45.5c-0.6,0.6-0.6,1.5,0,2.1l13.6,13.6c0.6,0.6,1.5,0.6,2.1,0l13.6-13.6c0.6-0.6,0.6-1.5,0-2.1L50.6,31.9z"/>
  <path fill="#2684FF" opacity="0.3" d="M50.6,31.9L37,45.5c-0.6,0.6-0.6,1.5,0,2.1l13.6,13.6V31.9z"/>
</svg>
