<?xml version="1.0" encoding="utf-8"?>
<svg xmlns="http://www.w3.org/2000/svg" viewBox="0 0 100 100">
  <path fill="#E01E5A" d="M21.4,51.9c0,5.8-4.7,10.5-10.5,10.5C5.1,62.4,0.4,57.7,0.4,51.9c0-5.8,4.7-10.5,10.5-10.5h10.5V51.9z"/>
  <path fill="#E01E5A" d="M26.9,51.9c0-5.8,4.7-10.5,10.5-10.5s10.5,4.7,10.5,10.5v26.3c0,5.8-4.7,10.5-10.5,10.5s-10.5-4.7-10.5-10.5V51.9z"/>
  <path fill="#36C5F0" d="M37.4,21.4c-5.8,0-10.5-4.7-10.5-10.5S31.6,0.4,37.4,0.4s10.5,4.7,10.5,10.5v10.5H37.4z"/>
  <path fill="#36C5F0" d="M37.4,26.9c5.8,0,10.5,4.7,10.5,10.5s-4.7,10.5-10.5,10.5H11.1c-5.8,0-10.5-4.7-10.5-10.5s4.7-10.5,10.5-10.5H37.4z"/>
  <path fill="#2EB67D" d="M67.9,37.4c0-5.8,4.7-10.5,10.5-10.5c5.8,0,10.5,4.7,10.5,10.5S84.2,47.9,78.4,47.9H67.9V37.4z"/>
  <path fill="#2EB67D" d="M62.4,37.4c0,5.8-4.7,10.5-10.5,10.5c-5.8,0-10.5-4.7-10.5-10.5V11.1c0-5.8,4.7-10.5,10.5-10.5c5.8,0,10.5,4.7,10.5,10.5V37.4z"/>
  <path fill="#ECB22E" d="M51.9,67.9c5.8,0,10.5,4.7,10.5,10.5c0,5.8-4.7,10.5-10.5,10.5c-5.8,0-10.5-4.7-10.5-10.5V67.9H51.9z"/>
  <path fill="#ECB22E" d="M51.9,62.4c-5.8,0-10.5-4.7-10.5-10.5c0-5.8,4.7-10.5,10.5-10.5h26.3c5.8,0,10.5,4.7,10.5,10.5c0,5.8-4.7,10.5-10.5,10.5H51.9z"/>
</svg>
