<?xml version="1.0" encoding="utf-8"?>
<svg xmlns="http://www.w3.org/2000/svg" viewBox="0 0 100 100">
  <path fill="#5059C9" d="M85,35h-5V20c0-2.8-2.2-5-5-5H60c-2.8,0-5,2.2-5,5v15h-5c-2.8,0-5,2.2-5,5v40c0,2.8,2.2,5,5,5h35c2.8,0,5-2.2,5-5V40C90,37.2,87.8,35,85,35z"/>
  <path fill="#7B83EB" d="M55,20c0-2.8,2.2-5,5-5H45c-2.8,0-5,2.2-5,5v15h15V20z"/>
  <circle fill="#5059C9" cx="30" cy="30" r="15"/>
  <path fill="#7B83EB" d="M45,35H15c-2.8,0-5,2.2-5,5v40c0,2.8,2.2,5,5,5h30c2.8,0,5-2.2,5-5V40C50,37.2,47.8,35,45,35z"/>
</svg>
